<svg width="265" height="102" viewBox="0 0 265 102" fill="none" xmlns="http://www.w3.org/2000/svg">
<path d="M25.016 12.552L26.6 16.2L10.904 23.016L26.6 29.928L25.016 33.48L7.4 25.272V20.76L25.016 12.552ZM47.576 0.263998L51.32 1.128L40.232 43.992L36.44 43.08L47.576 0.263998ZM62.7215 12.552L80.3375 20.76V25.272L62.7215 33.48L61.1375 29.928L76.8335 23.016L61.1375 16.2L62.7215 12.552ZM96.8495 5.928C101.841 5.928 105.841 7.096 108.849 9.432C111.889 11.736 113.409 16.024 113.409 22.296C113.409 28.408 111.889 32.728 108.849 35.256C105.841 37.752 102.177 39 97.8575 39H89.9375V5.928H96.8495ZM94.4975 9.576V35.4H98.1935C101.265 35.4 103.761 34.456 105.681 32.568C107.601 30.68 108.561 27.256 108.561 22.296C108.561 18.808 108.065 16.136 107.073 14.28C106.081 12.392 104.817 11.144 103.281 10.536C101.745 9.896 99.9375 9.576 97.8575 9.576H94.4975ZM141.132 5.928L140.604 9.576H127.788V20.376H138.924V24.024H127.788V35.352H141.516V39H123.228V5.928H141.132ZM172.916 5.928L162.356 39H157.46L146.804 5.928H151.7L160.004 34.056L168.308 5.928H172.916ZM178.909 32.904C179.869 32.904 180.669 33.224 181.309 33.864C181.949 34.504 182.269 35.288 182.269 36.216C182.269 37.144 181.949 37.944 181.309 38.616C180.669 39.256 179.869 39.576 178.909 39.576C177.981 39.576 177.197 39.256 176.557 38.616C175.917 37.944 175.597 37.144 175.597 36.216C175.597 35.288 175.917 34.504 176.557 33.864C177.197 33.224 177.981 32.904 178.909 32.904Z" fill="black"/>
<path d="M98.2756 45.352C100.484 45.352 102.372 45.672 103.94 46.312C105.508 46.92 107.028 47.88 108.5 49.192L106.004 51.976C104.756 50.984 103.524 50.264 102.308 49.816C101.124 49.336 99.8436 49.096 98.4676 49.096C96.7396 49.096 95.3156 49.496 94.1956 50.296C93.0756 51.096 92.5156 52.264 92.5156 53.8C92.5156 54.76 92.7076 55.576 93.0916 56.248C93.4756 56.888 94.1796 57.48 95.2036 58.024C96.2596 58.568 97.7796 59.144 99.7636 59.752C101.844 60.392 103.572 61.08 104.948 61.816C106.324 62.552 107.428 63.576 108.26 64.888C109.124 66.168 109.556 67.8 109.556 69.784C109.556 71.704 109.076 73.4 108.116 74.872C107.188 76.344 105.828 77.496 104.036 78.328C102.276 79.16 100.18 79.576 97.7476 79.576C93.1716 79.576 89.4276 78.152 86.5156 75.304L89.0116 72.52C90.3556 73.608 91.7156 74.44 93.0916 75.016C94.4676 75.56 96.0036 75.832 97.6996 75.832C99.7476 75.832 101.444 75.336 102.788 74.344C104.132 73.32 104.804 71.848 104.804 69.928C104.804 68.84 104.596 67.944 104.18 67.24C103.764 66.504 103.044 65.848 102.02 65.272C101.028 64.696 99.5716 64.12 97.6516 63.544C94.2596 62.52 91.7796 61.288 90.2116 59.848C88.6436 58.408 87.8596 56.456 87.8596 53.992C87.8596 52.328 88.2916 50.84 89.1556 49.528C90.0516 48.216 91.2836 47.192 92.8516 46.456C94.4516 45.72 96.2596 45.352 98.2756 45.352ZM130.48 45.352C133.264 45.352 135.696 46.024 137.776 47.368C139.888 48.68 141.52 50.616 142.672 53.176C143.856 55.736 144.448 58.84 144.448 62.488C144.448 66.072 143.856 69.144 142.672 71.704C141.52 74.264 139.888 76.216 137.776 77.56C135.696 78.904 133.264 79.576 130.48 79.576C127.696 79.576 125.248 78.92 123.136 77.608C121.056 76.296 119.424 74.36 118.24 71.8C117.088 69.24 116.512 66.152 116.512 62.536C116.512 58.984 117.088 55.912 118.24 53.32C119.424 50.728 121.072 48.76 123.184 47.416C125.296 46.04 127.728 45.352 130.48 45.352ZM130.48 49.096C127.6 49.096 125.36 50.184 123.76 52.36C122.16 54.536 121.36 57.928 121.36 62.536C121.36 67.112 122.16 70.472 123.76 72.616C125.392 74.76 127.632 75.832 130.48 75.832C136.56 75.832 139.6 71.384 139.6 62.488C139.6 53.56 136.56 49.096 130.48 49.096ZM176.962 68.392C176.962 70.6 176.498 72.552 175.57 74.248C174.674 75.912 173.346 77.224 171.586 78.184C169.858 79.112 167.778 79.576 165.346 79.576C161.666 79.576 158.818 78.568 156.802 76.552C154.818 74.504 153.826 71.784 153.826 68.392V45.928H158.386V68.056C158.386 70.616 158.962 72.536 160.114 73.816C161.266 75.096 163.01 75.736 165.346 75.736C167.714 75.736 169.474 75.112 170.626 73.864C171.778 72.584 172.354 70.648 172.354 68.056V45.928H176.962V68.392ZM203.715 45.928V49.624L187.347 75.112H203.715L203.187 79H182.259V75.352L198.771 49.768H183.987V45.928H203.715ZM230.713 79L228.217 70.696H215.689L213.193 79H208.585L219.193 45.928H224.953L235.513 79H230.713ZM216.793 67H227.113L221.977 49.72L216.793 67Z" fill="#073FCC"/>
<path d="M7.36 91.44C7.36 90.48 7.25867 89.712 7.056 89.136C6.85333 88.56 6.58667 88.128 6.256 87.84C5.92533 87.552 5.56267 87.36 5.168 87.264C4.77867 87.168 4.39467 87.12 4.016 87.12H2.72V95.888H4.032C4.42667 95.888 4.81867 95.8267 5.208 95.704C5.60267 95.576 5.96267 95.352 6.288 95.032C6.61333 94.7067 6.872 94.256 7.064 93.68C7.26133 93.0987 7.36 92.352 7.36 91.44ZM8.84 91.44C8.84 92.3573 8.74133 93.1413 8.544 93.792C8.352 94.4373 8.088 94.9707 7.752 95.392C7.416 95.8133 7.032 96.1413 6.6 96.376C6.17333 96.6053 5.72267 96.768 5.248 96.864C4.77867 96.9547 4.31733 97 3.864 97H1.336V85.984H3.688C4.33333 85.984 4.96 86.056 5.568 86.2C6.18133 86.344 6.73333 86.6107 7.224 87C7.72 87.384 8.112 87.9333 8.4 88.648C8.69333 89.3627 8.84 90.2933 8.84 91.44ZM14.5938 87.12V90.832H18.6738V91.976H14.5938V95.888H19.6018V97H13.2018V85.984H19.4578L19.2978 87.12H14.5938ZM30.9715 93.952C30.9715 94.5813 30.8142 95.1413 30.4995 95.632C30.1848 96.1173 29.7288 96.4987 29.1315 96.776C28.5342 97.048 27.8062 97.184 26.9475 97.184C26.1422 97.184 25.4115 97.0613 24.7555 96.816C24.1048 96.5707 23.5475 96.224 23.0835 95.776L23.9075 94.848C24.2915 95.2053 24.7315 95.4907 25.2275 95.704C25.7235 95.912 26.3048 96.016 26.9715 96.016C27.4195 96.016 27.8382 95.944 28.2275 95.8C28.6168 95.6507 28.9315 95.4267 29.1715 95.128C29.4115 94.824 29.5315 94.44 29.5315 93.976C29.5315 93.6187 29.4622 93.3147 29.3235 93.064C29.1848 92.8133 28.9395 92.592 28.5875 92.4C28.2355 92.2027 27.7448 92.0107 27.1155 91.824C26.3902 91.6107 25.7608 91.3707 25.2275 91.104C24.6995 90.832 24.2888 90.4987 23.9955 90.104C23.7075 89.7093 23.5635 89.2213 23.5635 88.64C23.5635 88.0907 23.7155 87.6027 24.0195 87.176C24.3235 86.7493 24.7422 86.416 25.2755 86.176C25.8142 85.9307 26.4328 85.808 27.1315 85.808C27.8942 85.808 28.5555 85.9173 29.1155 86.136C29.6808 86.3493 30.1928 86.6587 30.6515 87.064L29.8355 87.968C29.4408 87.616 29.0168 87.3627 28.5635 87.208C28.1102 87.048 27.6488 86.968 27.1795 86.968C26.7795 86.968 26.4115 87.0293 26.0755 87.152C25.7448 87.2693 25.4782 87.448 25.2755 87.688C25.0782 87.9227 24.9795 88.224 24.9795 88.592C24.9795 88.9067 25.0648 89.1787 25.2355 89.408C25.4062 89.6373 25.6942 89.848 26.0995 90.04C26.5048 90.2267 27.0568 90.424 27.7555 90.632C28.3262 90.7973 28.8542 91.0053 29.3395 91.256C29.8302 91.5013 30.2248 91.8373 30.5235 92.264C30.8222 92.6853 30.9715 93.248 30.9715 93.952ZM36.9812 87.12V90.832H41.0612V91.976H36.9812V95.888H41.9892V97H35.5892V85.984H41.8452L41.6852 87.12H36.9812ZM51.095 97L47.215 87.312C47.2203 87.4347 47.231 87.64 47.247 87.928C47.2683 88.2107 47.2897 88.5493 47.311 88.944C47.3377 89.3333 47.359 89.7467 47.375 90.184C47.391 90.6213 47.399 91.0533 47.399 91.48V97H46.111V85.984H47.991L51.935 95.712C51.9297 95.5573 51.911 95.2747 51.879 94.864C51.847 94.448 51.8177 93.9467 51.791 93.36C51.7643 92.7733 51.751 92.152 51.751 91.496V85.984H53.039V97H51.095ZM60.8008 95.424L63.7768 85.984H65.1768L61.4888 97H60.0488L56.3608 85.984H57.8568L60.8008 95.424ZM76.0185 91.504C76.0185 92.6133 75.8665 93.5973 75.5625 94.456C75.2638 95.3093 74.8132 95.9787 74.2105 96.464C73.6078 96.944 72.8585 97.184 71.9625 97.184C71.0718 97.184 70.3225 96.9493 69.7145 96.48C69.1118 96.0053 68.6585 95.344 68.3545 94.496C68.0558 93.648 67.9065 92.656 67.9065 91.52C67.9065 90.4053 68.0558 89.4187 68.3545 88.56C68.6585 87.7013 69.1118 87.0293 69.7145 86.544C70.3225 86.0533 71.0718 85.808 71.9625 85.808C72.8585 85.808 73.6078 86.0453 74.2105 86.52C74.8132 86.9947 75.2638 87.6587 75.5625 88.512C75.8665 89.3653 76.0185 90.3627 76.0185 91.504ZM74.5625 91.504C74.5625 90.0373 74.3598 88.9147 73.9545 88.136C73.5545 87.3573 72.8905 86.968 71.9625 86.968C71.0345 86.968 70.3678 87.36 69.9625 88.144C69.5625 88.928 69.3625 90.0533 69.3625 91.52C69.3625 92.9867 69.5705 94.104 69.9865 94.872C70.4025 95.6347 71.0612 96.016 71.9625 96.016C72.8905 96.016 73.5545 95.632 73.9545 94.864C74.3598 94.0907 74.5625 92.9707 74.5625 91.504ZM80.5242 97V85.984H81.9162V95.76H86.9402L86.7802 97H80.5242ZM94.382 95.424L97.358 85.984H98.758L95.07 97H93.63L89.942 85.984H91.438L94.382 95.424ZM104.144 87.12V90.832H108.224V91.976H104.144V95.888H109.152V97H102.752V85.984H109.008L108.848 87.12H104.144ZM119.298 91.44C119.298 90.48 119.196 89.712 118.994 89.136C118.791 88.56 118.524 88.128 118.194 87.84C117.863 87.552 117.5 87.36 117.106 87.264C116.716 87.168 116.332 87.12 115.954 87.12H114.658V95.888H115.97C116.364 95.888 116.756 95.8267 117.146 95.704C117.54 95.576 117.9 95.352 118.226 95.032C118.551 94.7067 118.81 94.256 119.002 93.68C119.199 93.0987 119.298 92.352 119.298 91.44ZM120.778 91.44C120.778 92.3573 120.679 93.1413 120.482 93.792C120.29 94.4373 120.026 94.9707 119.69 95.392C119.354 95.8133 118.97 96.1413 118.538 96.376C118.111 96.6053 117.66 96.768 117.186 96.864C116.716 96.9547 116.255 97 115.802 97H113.274V85.984H115.626C116.271 85.984 116.898 86.056 117.506 86.2C118.119 86.344 118.671 86.6107 119.162 87C119.658 87.384 120.05 87.9333 120.338 88.648C120.631 89.3627 120.778 90.2933 120.778 91.44ZM131.987 91.504C131.987 92.6133 131.835 93.5973 131.531 94.456C131.233 95.3093 130.782 95.9787 130.179 96.464C129.577 96.944 128.827 97.184 127.931 97.184C127.041 97.184 126.291 96.9493 125.683 96.48C125.081 96.0053 124.627 95.344 124.323 94.496C124.025 93.648 123.875 92.656 123.875 91.52C123.875 90.4053 124.025 89.4187 124.323 88.56C124.627 87.7013 125.081 87.0293 125.683 86.544C126.291 86.0533 127.041 85.808 127.931 85.808C128.827 85.808 129.577 86.0453 130.179 86.52C130.782 86.9947 131.233 87.6587 131.531 88.512C131.835 89.3653 131.987 90.3627 131.987 91.504ZM130.531 91.504C130.531 90.0373 130.329 88.9147 129.923 88.136C129.523 87.3573 128.859 86.968 127.931 86.968C127.003 86.968 126.337 87.36 125.931 88.144C125.531 88.928 125.331 90.0533 125.331 91.52C125.331 92.9867 125.539 94.104 125.955 94.872C126.371 95.6347 127.03 96.016 127.931 96.016C128.859 96.016 129.523 95.632 129.923 94.864C130.329 94.0907 130.531 92.9707 130.531 91.504ZM142.925 89.072C142.925 89.6213 142.805 90.1013 142.565 90.512C142.33 90.9227 142.01 91.2613 141.605 91.528C141.2 91.7947 140.744 91.9893 140.237 92.112L143.501 97H141.837L138.829 92.272H137.341V97H135.949V85.984H138.781C140.141 85.984 141.17 86.2453 141.869 86.768C142.573 87.2853 142.925 88.0533 142.925 89.072ZM141.437 89.072C141.437 88.3627 141.234 87.856 140.829 87.552C140.424 87.2427 139.794 87.088 138.941 87.088H137.341V91.184H138.941C139.73 91.184 140.344 91.024 140.781 90.704C141.218 90.3787 141.437 89.8347 141.437 89.072ZM160.304 87.12V90.976H164.624V92.096H160.304V97H158.928V85.984H165.416L165.248 87.12H160.304ZM176.506 89.072C176.506 89.6213 176.386 90.1013 176.146 90.512C175.912 90.9227 175.592 91.2613 175.186 91.528C174.781 91.7947 174.325 91.9893 173.818 92.112L177.082 97H175.418L172.41 92.272H170.922V97H169.53V85.984H172.362C173.722 85.984 174.752 86.2453 175.45 86.768C176.154 87.2853 176.506 88.0533 176.506 89.072ZM175.018 89.072C175.018 88.3627 174.816 87.856 174.41 87.552C174.005 87.2427 173.376 87.088 172.522 87.088H170.922V91.184H172.522C173.312 91.184 173.925 91.024 174.362 90.704C174.8 90.3787 175.018 89.8347 175.018 89.072ZM187.956 91.504C187.956 92.6133 187.804 93.5973 187.5 94.456C187.201 95.3093 186.751 95.9787 186.148 96.464C185.545 96.944 184.796 97.184 183.9 97.184C183.009 97.184 182.26 96.9493 181.652 96.48C181.049 96.0053 180.596 95.344 180.292 94.496C179.993 93.648 179.844 92.656 179.844 91.52C179.844 90.4053 179.993 89.4187 180.292 88.56C180.596 87.7013 181.049 87.0293 181.652 86.544C182.26 86.0533 183.009 85.808 183.9 85.808C184.796 85.808 185.545 86.0453 186.148 86.52C186.751 86.9947 187.201 87.6587 187.5 88.512C187.804 89.3653 187.956 90.3627 187.956 91.504ZM186.5 91.504C186.5 90.0373 186.297 88.9147 185.892 88.136C185.492 87.3573 184.828 86.968 183.9 86.968C182.972 86.968 182.305 87.36 181.9 88.144C181.5 88.928 181.3 90.0533 181.3 91.52C181.3 92.9867 181.508 94.104 181.924 94.872C182.34 95.6347 182.999 96.016 183.9 96.016C184.828 96.016 185.492 95.632 185.892 94.864C186.297 94.0907 186.5 92.9707 186.5 91.504ZM196.614 97L192.734 87.312C192.739 87.4347 192.75 87.64 192.766 87.928C192.787 88.2107 192.808 88.5493 192.83 88.944C192.856 89.3333 192.878 89.7467 192.894 90.184C192.91 90.6213 192.918 91.0533 192.918 91.48V97H191.63V85.984H193.51L197.454 95.712C197.448 95.5573 197.43 95.2747 197.398 94.864C197.366 94.448 197.336 93.9467 197.31 93.36C197.283 92.7733 197.27 92.152 197.27 91.496V85.984H198.558V97H196.614ZM206.952 87.176V97H205.568V87.176H202.128V85.984H210.44L210.296 87.176H206.952ZM214.273 92.576V91.408H220.689V92.576H214.273ZM227.275 87.12V90.832H231.355V91.976H227.275V95.888H232.283V97H225.883V85.984H232.139L231.979 87.12H227.275ZM241.389 97L237.509 87.312C237.514 87.4347 237.525 87.64 237.541 87.928C237.562 88.2107 237.583 88.5493 237.605 88.944C237.631 89.3333 237.653 89.7467 237.669 90.184C237.685 90.6213 237.693 91.0533 237.693 91.48V97H236.405V85.984H238.285L242.229 95.712C242.223 95.5573 242.205 95.2747 242.173 94.864C242.141 94.448 242.111 93.9467 242.085 93.36C242.058 92.7733 242.045 92.152 242.045 91.496V85.984H243.333V97H241.389ZM253.622 91.44C253.622 90.48 253.521 89.712 253.318 89.136C253.116 88.56 252.849 88.128 252.518 87.84C252.188 87.552 251.825 87.36 251.43 87.264C251.041 87.168 250.657 87.12 250.278 87.12H248.982V95.888H250.294C250.689 95.888 251.081 95.8267 251.47 95.704C251.865 95.576 252.225 95.352 252.55 95.032C252.876 94.7067 253.134 94.256 253.326 93.68C253.524 93.0987 253.622 92.352 253.622 91.44ZM255.102 91.44C255.102 92.3573 255.004 93.1413 254.806 93.792C254.614 94.4373 254.35 94.9707 254.014 95.392C253.678 95.8133 253.294 96.1413 252.862 96.376C252.436 96.6053 251.985 96.768 251.51 96.864C251.041 96.9547 250.58 97 250.126 97H247.598V85.984H249.95C250.596 85.984 251.222 86.056 251.83 86.2C252.444 86.344 252.996 86.6107 253.486 87C253.982 87.384 254.374 87.9333 254.662 88.648C254.956 89.3627 255.102 90.2933 255.102 91.44Z" fill="black"/>
</svg>
